# xmcd
#
# Track frame offsets:
#	150
#	24041
#	40448
#	53013
#	75689
#	85128
#	96094
#	108499
#	128409
#	143303
#	155476
#	174288
#	184434
#	195440
#	207669
#	220101
#	228983
#	238910
#
# Disc length: 3351 seconds
#
# Revision: 0
# Processed by: cddbd v1.5PL3 Copyright (c) Steve Scherf et al.
# Submitted via: dBpowerAMP V4.0
#
DISCID=e60d1512
DTITLE=James Brown - Godfather Of Soul
DYEAR=1993
DGENRE=Soul
TTITLE0=Sex Machine
TTITLE1=Hey America
TTITLE2=Think
TTITLE3=(Call Me) Super Bad
TTITLE4=Papa's Got A Brand New Bag
TTITLE5=Bewildered
TTITLE6=Please Please Please
TTITLE7=Georgia On My Mind
TTITLE8=Stormy Monday
TTITLE9=Signed Sealed Delivered
TTITLE10=Stone Cold Drag
TTITLE11=Good Good Lovin'
TTITLE12=Spinning Wheel
TTITLE13=Nature Boy
TTITLE14=It's A Man's Man's Man's World
TTITLE15=Mona Lisa
TTITLE16=This Old Heart
TTITLE17=Stagger Lee
EXTD=
EXTT0=
EXTT1=
EXTT2=
EXTT3=
EXTT4=
EXTT5=
EXTT6=
EXTT7=
EXTT8=
EXTT9=
EXTT10=
EXTT11=
EXTT12=
EXTT13=
EXTT14=
EXTT15=
EXTT16=
EXTT17=
PLAYORDER=
